<?xml version="1.0" encoding="iso-8859-1"?>
<!-- Generator: Adobe Illustrator 19.0.0, SVG Export Plug-In . SVG Version: 6.00 Build 0)  -->
<svg version="1.1" id="Capa_1" xmlns="http://www.w3.org/2000/svg" xmlns:xlink="http://www.w3.org/1999/xlink" x="0px" y="0px"
	 viewBox="0 0 512 512" style="enable-background:new 0 0 512 512; fill: white;" xml:space="preserve">
<g>
	<g>
		<path d="M256,0c-55.124,0-99.973,44.849-99.973,99.973v169.896c0,55.124,44.849,99.973,99.973,99.973
			s99.973-45.109,99.973-100.551V99.973C355.973,44.849,311.13,0,256,0z M321.3,269.291c0,36.325-29.293,65.878-65.3,65.878
			s-65.3-29.298-65.3-65.3V99.973c0-36.008,29.293-65.3,65.3-65.3s65.3,29.293,65.3,65.3V269.291z"/>
	</g>
</g>
<g>
	<g>
		<rect x="238.664" y="420.117" width="34.673" height="78.591"/>
	</g>
</g>
<g>
	<g>
		<path d="M327.657,477.327H184.343c-9.575,0-17.336,7.761-17.336,17.336c0,9.575,7.761,17.336,17.336,17.336h143.314
			c9.575,0,17.336-7.761,17.336-17.336C344.993,485.088,337.232,477.327,327.657,477.327z"/>
	</g>
</g>
<g>
	<g>
		<path d="M402.203,184.343c-9.575,0-17.336,7.761-17.336,17.336v68.19c0,71.056-57.805,128.867-128.867,128.867
			s-128.867-57.811-128.867-128.867v-68.19c0-9.576-7.761-17.336-17.336-17.336s-17.336,7.761-17.336,17.336v68.19
			c0,90.178,73.362,163.539,163.539,163.539s163.539-73.362,163.539-163.539v-68.19
			C419.539,192.104,411.779,184.343,402.203,184.343z"/>
	</g>
</g>
<g>
	<g>
		<path style="fill: white;" d="M467.047,44.953c-6.773-6.773-17.741-6.773-24.514,0l-397.58,397.58c-6.773,6.767-6.773,17.747,0,24.514
			c3.381,3.386,7.819,5.08,12.257,5.08c4.432,0,8.876-1.693,12.257-5.08l397.58-397.58C473.82,62.7,473.82,51.72,467.047,44.953z"/>
	</g>
</g>
<g>
</g>
<g>
</g>
<g>
</g>
<g>
</g>
<g>
</g>
<g>
</g>
<g>
</g>
<g>
</g>
<g>
</g>
<g>
</g>
<g>
</g>
<g>
</g>
<g>
</g>
<g>
</g>
<g>
</g>
</svg>
